<svg width="100" height="100" viewBox="0 0 100 100" fill="none" xmlns="http://www.w3.org/2000/svg">
<g id="ooui:map-pin" clip-path="url(#clip0_15_235)">
<path id="Vector" d="M50 -4.74975e-06C44.681 -0.249475 39.3684 0.614402 34.4024 2.53633C29.4364 4.45825 24.9265 7.39588 21.1612 11.1612C17.3959 14.9264 14.4583 19.4364 12.5363 24.4024C10.6144 29.3684 9.75054 34.6809 10 40C10 52.6 20 65 25 70C30 75 50 100 50 100C50 100 70 75 75 70C80 65 90 52.6 90 40C90.2495 34.6809 89.3856 29.3684 87.4637 24.4024C85.5418 19.4364 82.6041 14.9264 78.8389 11.1612C75.0736 7.39588 70.5636 4.45825 65.5976 2.53633C60.6317 0.614402 55.3191 -0.249475 50 -4.74975e-06ZM50 56.25C46.7861 56.25 43.6443 55.2969 40.972 53.5114C38.2997 51.7258 36.2169 49.1879 34.987 46.2186C33.7571 43.2493 33.4352 39.982 34.0623 36.8298C34.6893 33.6776 36.2369 30.7821 38.5095 28.5095C40.7821 26.2369 43.6776 24.6892 46.8298 24.0622C49.982 23.4352 53.2493 23.757 56.2186 24.9869C59.1879 26.2169 61.7258 28.2997 63.5114 30.972C65.297 33.6443 66.25 36.786 66.25 40C66.25 42.134 65.8297 44.2471 65.0131 46.2186C64.1964 48.1901 62.9995 49.9815 61.4905 51.4905C59.9816 52.9994 58.1902 54.1964 56.2186 55.013C54.2471 55.8297 52.134 56.25 50 56.25Z" fill="white"/>
</g>
<defs>
<clipPath id="clip0_15_235">
<rect width="100" height="100" fill="white"/>
</clipPath>
</defs>
</svg>
